<?xml version="1.0" encoding="utf-8"?>
<!-- Generator: Adobe Illustrator 19.2.1, SVG Export Plug-In . SVG Version: 6.00 Build 0)  -->
<svg version="1.1" id="layer" xmlns="http://www.w3.org/2000/svg" xmlns:xlink="http://www.w3.org/1999/xlink" x="0px" y="0px"
	 viewBox="0 0 652 652" style="enable-background:new 0 0 652 652;" xml:space="preserve">
<style type="text/css">
	.st0{fill:#231815;}
	.st1{fill:#FFD900;}
</style>
<g>
	<g>
		<path class="st0" d="M369.4,371.3c0.5,1.6,0.6,4.8-0.3,6.9L349.6,426l-22.2-47.9c-1-2.1-1.6-5.2-1.7-6.9h-13.2
			c1.6,1.8,3.4,4.8,4.4,6.9l28.1,57.8l-15.6,37.6c-0.9,1.9-2.8,6.3-4.9,10.6h9.1c1.3-4.7,2.8-9.9,4.4-13.6l39.2-92.4
			c0.9-2.1,2.5-5,3.9-6.9H369.4"/>
		<path class="st0" d="M459.5,371.3H449c0.7,1.8,1.1,4.8,1.1,6.9v54.7c0,2.1-0.4,5-1.1,6.9h11.6c-0.7-1.8-1.1-4.8-1.1-6.9V371.3"/>
		<path class="st0" d="M224.9,439.7c-0.7-1.8-1.1-4.8-1.1-6.9l0-40.1c0-13.1-12.5-23.7-27.8-23.7c-10.1,0-18.8,4.2-23.2,10.1v-7.9
			h-10.3c0.7,1.8,1.1,4.8,1.1,6.9v54.7c0,2.1-0.4,5-1.1,6.9h11.6c-0.7-1.8-1.1-4.8-1.1-6.9v-40.3c0.7-9.5,9.4-17.1,20.6-17.1
			c11.7,0,20.6,8.2,20.6,18.3l0,39.1c0,2.1-0.4,5-1.1,6.9H224.9"/>
		<path class="st0" d="M305.9,439.7c-0.7-1.8-1.1-4.8-1.1-6.9l0-40.1c0-13.1-12.5-23.7-27.8-23.7c-10.1,0-18.8,4.2-23.2,10.1v-7.9
			h-10.3c0.7,1.8,1.1,4.8,1.1,6.9v54.7c0,2.1-0.4,5-1.1,6.9h11.6c-0.7-1.8-1.1-4.8-1.1-6.9v-40.3c0.7-9.5,9.4-17.1,20.6-17.1
			c11.7,0,20.6,8.2,20.6,18.3l0,39.1c0,2.1-0.4,5-1.1,6.9H305.9"/>
		<path class="st0" d="M144.6,439.7c-0.7-1.8-1.1-4.8-1.1-6.9l0-61.6H133c0.7,1.8,1.1,4.8,1.1,6.9v40.3c-0.7,9.5-8.9,17.1-20.1,17.1
			c-11.7,0-20.6-8.2-20.6-18.3l0-46H82.8c0.7,1.8,1.1,4.8,1.1,6.9l0,40.1c0,13.1,12.5,23.7,27.8,23.7c10.1,0,18.6-4.9,22.7-11.4v9.2
			H144.6"/>
		<rect x="448" y="343.5" class="st0" width="11.6" height="12.3"/>
		<path class="st0" d="M510.4,434.7c-14.4,0-24.1-12.4-24.1-29.3s9.7-29.3,24.1-29.3c13.3,0,22,8.1,22,21.8v14.9
			C532.4,426.5,523.7,434.7,510.4,434.7 M543,439.7c-0.7-1.8-1.2-4.8-1.2-6.9V331.6h-10.5c0.7,1.8,1.1,4.8,1.1,6.9v41
			c-5.7-6.5-14.1-10.1-23-10.1c-19.2,0-33.2,13.9-33.2,36c0,21,14,36,33.2,36c9,0,17.3-3.6,23-10.1c0,0-0.3,5.5,1.1,8.3H543z"/>
		<path class="st0" d="M591.8,375.6c11.2,0,19,7.2,20.6,17.2h-43C572.2,382.4,579.7,375.6,591.8,375.6 M567.6,405.1
			c0-2.1,0.2-4.2,0.5-6.2h53.3c0-4.5-0.8-7.8-2.3-11c-4.9-11-14.8-18.4-28.1-18.4c-19.5,0-33.4,14.9-33.4,35.7
			c0,20.5,15.8,35.7,37.5,35.7c7.5,0,15.3-1.6,22.7-4.4l1.4-7.2c-6.7,3.5-14.7,5.5-22.9,5.5C577.1,434.8,567.6,421.3,567.6,405.1z"
			/>
		<path class="st0" d="M57.7,405c-3.7-2-6.5-3.2-9.1-4.2c-3-1.2-5.6-2.2-9.7-4.4c-3.6-1.9-6-4.9-6-9.1c0-7.5,7.5-11.3,16.5-11.3
			c3.3,0,9.3,1.2,13.8,3.4v-7.3c-4.4-1.7-9.5-2.6-14.5-2.6c-14.3,0-25.3,6.1-25.3,18.5c0,6.9,3.7,11.7,9.2,14.9
			c3.9,2.3,6.6,3.3,9.5,4.5c2.8,1.1,5.4,2.1,9.3,4c4.2,2,6.7,6.3,6.7,11.2c0,8.9-7.5,13.4-17.1,13.4c-3.3,0-11.2-1.1-19.6-5l1.2,8.7
			c5.5,1.6,13.7,2.3,18.8,2.3c14.3,0,25.9-6.7,25.9-20.3C67.3,414,63.6,408.2,57.7,405"/>
		<path class="st0" d="M423.4,405c-3.7-2-6.5-3.2-9.1-4.2c-3-1.2-5.6-2.2-9.7-4.4c-3.6-1.9-6-4.9-6-9.1c0-7.5,7.5-11.3,16.5-11.3
			c3.3,0,9.3,1.2,13.8,3.4v-7.3c-4.4-1.7-9.5-2.6-14.5-2.6c-14.2,0-25.3,6.1-25.3,18.5c0,6.9,3.7,11.7,9.2,14.9
			c3.9,2.3,6.6,3.3,9.5,4.5c2.8,1.1,5.4,2.1,9.3,4c4.2,2,6.7,6.3,6.7,11.2c0,8.9-7.5,13.4-17.1,13.4c-3.3,0-11.2-1.1-19.6-5l1.2,8.7
			c5.5,1.6,13.8,2.3,18.8,2.3c14.3,0,25.9-6.7,25.9-20.3C433,414,429.3,408.2,423.4,405"/>
		<path class="st0" d="M521.3,202.5c0-24.3,22.3-44,50-44c27.7,0,50,19.7,50,44c0,17.3-10.7,27.5-19.1,37.5c-4.6,5.4-6.5,9-6.5,15.2
			h-22.2c-0.2-5.5,0.7-10,2.5-14.5c2.4-6.1,5.9-10.7,9.1-14.5c1-1.2,2-2.4,3-3.5c7.2-8.4,11-13.1,11-20.2c0-6.5-3.4-11.2-6.3-14.1
			c-5.4-5.2-13.1-8.2-21.5-8.2c-8.4,0-16.1,3-21.5,8.2c-2.9,2.8-6.3,7.5-6.3,14.1c0,6,2.4,9.8,7,15.2c8.4,10,19.1,20.2,19.1,37.5
			c0,24.3-22.3,44-50,44c-27.7,0-50-19.7-50-44c0-17.3,10.7-27.5,19.1-37.5c4.6-5.4,6.5-9,6.5-15.2h22.2c0.2,5.5-0.7,10-2.5,14.5
			c-2.4,6.1-5.9,10.7-9.1,14.5c-1,1.2-2,2.4-3,3.5c-7.2,8.4-11,13.1-11,20.2c0,6.5,3.4,11.2,6.3,14.1c5.4,5.2,13.1,8.2,21.5,8.2
			c8.4,0,16.1-3,21.5-8.2c2.9-2.8,6.3-7.5,6.3-14.1c0-7.1-3.8-11.9-11-20.2c-1-1.1-2-2.3-3-3.5c-3.2-3.7-6.7-8.4-9.1-14.5
			C522.5,212.6,521.3,208.1,521.3,202.5"/>
		<polyline class="st1" points="590.1,203.3 574.3,203.3 585.5,192.5 583.7,190.7 572.5,201.6 572.5,186.2 570,186.2 570,201.6 
			558.9,190.7 557.1,192.5 568.2,203.3 552.4,203.3 552.4,205.8 568.2,205.8 557.1,216.7 558.9,218.4 570,207.6 570,223 572.5,223 
			572.5,207.6 583.7,218.4 585.5,216.7 574.3,205.8 590.1,205.8 590.1,203.3 		"/>
		<path class="st1" d="M517.3,202.5c0.2,5.5-0.7,10-2.5,14.5c-2.4,6.1-5.9,10.7-9.1,14.5c-1,1.2-2,2.4-3,3.5
			c-7.2,8.4-11,13.1-11,20.2c0,6.5,3.4,11.2,6.3,14.1c5.4,5.2,13.1,8.2,21.5,8.2c8.4,0,16.1-3,21.5-8.2c2.9-2.8,6.3-7.5,6.3-14.1
			c0-7.1-3.8-11.9-11-20.2c-1-1.1-2-2.3-3-3.5c-3.2-3.7-6.7-8.4-9.1-14.5c-1.7-4.4-2.9-8.9-2.9-14.4L517.3,202.5"/>
	</g>
</g>
</svg>
